<?xml version="1.0" encoding="UTF-8" standalone="no"?>
<!DOCTYPE svg PUBLIC "-//W3C//DTD SVG 1.1//EN"
 "http://www.w3.org/Graphics/SVG/1.1/DTD/svg11.dtd">
<!-- Generated by graphviz version 12.1.2 (20240928.0832)
 -->
<!-- Title: public.entries Pages: 1 -->
<svg width="643pt" height="602pt"
 viewBox="0.00 0.00 642.96 602.00" xmlns="http://www.w3.org/2000/svg" xmlns:xlink="http://www.w3.org/1999/xlink">
<g id="graph0" class="graph" transform="scale(1 1) rotate(0) translate(4 598)">
<title>public.entries</title>
<polygon fill="white" stroke="none" points="-4,4 -4,-598 638.96,-598 638.96,4 -4,4"/>
<!-- public.entries -->
<g id="node1" class="node">
<title>public.entries</title>
<polygon fill="#efefef" stroke="none" points="46.2,-512.2 46.2,-547.8 295.97,-547.8 295.97,-512.2 46.2,-512.2"/>
<polygon fill="none" stroke="black" points="46.2,-512.2 46.2,-547.8 295.97,-547.8 295.97,-512.2 46.2,-512.2"/>
<text text-anchor="start" x="60.11" y="-525.6" font-family="Arial Bold" font-size="18.00">public.entries</text>
<text text-anchor="start" x="157.58" y="-525.6" font-family="Arial" font-size="14.00">    </text>
<text text-anchor="start" x="188.69" y="-525.6" font-family="Arial" font-size="14.00" fill="#666666">[BASE TABLE]</text>
<polygon fill="none" stroke="black" points="46.2,-481.4 46.2,-512.2 295.97,-512.2 295.97,-481.4 46.2,-481.4"/>
<text text-anchor="start" x="53.2" y="-493.6" font-family="Arial" font-size="14.00">id </text>
<text text-anchor="start" x="67.99" y="-493.6" font-family="Arial" font-size="14.00" fill="#666666">[bigint]</text>
<polygon fill="none" stroke="black" points="46.2,-450.6 46.2,-481.4 295.97,-481.4 295.97,-450.6 46.2,-450.6"/>
<text text-anchor="start" x="53.2" y="-462.8" font-family="Arial" font-size="14.00">account_id </text>
<text text-anchor="start" x="124.81" y="-462.8" font-family="Arial" font-size="14.00" fill="#666666">[bigint]</text>
<polygon fill="none" stroke="black" points="46.2,-419.8 46.2,-450.6 295.97,-450.6 295.97,-419.8 46.2,-419.8"/>
<text text-anchor="start" x="53.2" y="-432" font-family="Arial" font-size="14.00">amount </text>
<text text-anchor="start" x="103.79" y="-432" font-family="Arial" font-size="14.00" fill="#666666">[numeric]</text>
<polygon fill="none" stroke="black" points="46.2,-389 46.2,-419.8 295.97,-419.8 295.97,-389 46.2,-389"/>
<text text-anchor="start" x="53.2" y="-401.2" font-family="Arial" font-size="14.00">created_at </text>
<text text-anchor="start" x="123.25" y="-401.2" font-family="Arial" font-size="14.00" fill="#666666">[timestamp with time zone]</text>
<polygon fill="none" stroke="black" stroke-width="3" points="44.7,-387.5 44.7,-549.3 297.47,-549.3 297.47,-387.5 44.7,-387.5"/>
</g>
<!-- public.accounts -->
<g id="node2" class="node">
<title>public.accounts</title>
<polygon fill="#efefef" stroke="none" points="45.61,-228 45.61,-263.6 296.56,-263.6 296.56,-228 45.61,-228"/>
<polygon fill="none" stroke="black" points="45.61,-228 45.61,-263.6 296.56,-263.6 296.56,-228 45.61,-228"/>
<text text-anchor="start" x="52.61" y="-241.4" font-family="Arial Bold" font-size="18.00">public.accounts</text>
<text text-anchor="start" x="165.07" y="-241.4" font-family="Arial" font-size="14.00">    </text>
<text text-anchor="start" x="196.19" y="-241.4" font-family="Arial" font-size="14.00" fill="#666666">[BASE TABLE]</text>
<polygon fill="none" stroke="black" points="45.61,-197.2 45.61,-228 296.56,-228 296.56,-197.2 45.61,-197.2"/>
<text text-anchor="start" x="52.61" y="-209.4" font-family="Arial" font-size="14.00">id </text>
<text text-anchor="start" x="67.39" y="-209.4" font-family="Arial" font-size="14.00" fill="#666666">[bigint]</text>
<polygon fill="none" stroke="black" points="45.61,-166.4 45.61,-197.2 296.56,-197.2 296.56,-166.4 45.61,-166.4"/>
<text text-anchor="start" x="52.61" y="-178.6" font-family="Arial" font-size="14.00">owner </text>
<text text-anchor="start" x="94.63" y="-178.6" font-family="Arial" font-size="14.00" fill="#666666">[varchar]</text>
<polygon fill="none" stroke="black" points="45.61,-135.6 45.61,-166.4 296.56,-166.4 296.56,-135.6 45.61,-135.6"/>
<text text-anchor="start" x="52.61" y="-147.8" font-family="Arial" font-size="14.00">balance </text>
<text text-anchor="start" x="105.54" y="-147.8" font-family="Arial" font-size="14.00" fill="#666666">[numeric]</text>
<polygon fill="none" stroke="black" points="45.61,-104.8 45.61,-135.6 296.56,-135.6 296.56,-104.8 45.61,-104.8"/>
<text text-anchor="start" x="52.61" y="-117" font-family="Arial" font-size="14.00">currency </text>
<text text-anchor="start" x="110.18" y="-117" font-family="Arial" font-size="14.00" fill="#666666">[varchar]</text>
<polygon fill="none" stroke="black" points="45.61,-74 45.61,-104.8 296.56,-104.8 296.56,-74 45.61,-74"/>
<text text-anchor="start" x="52.61" y="-86.2" font-family="Arial" font-size="14.00">created_at </text>
<text text-anchor="start" x="122.66" y="-86.2" font-family="Arial" font-size="14.00" fill="#666666">[timestamp with time zone]</text>
<polygon fill="none" stroke="black" points="45.61,-43.2 45.61,-74 296.56,-74 296.56,-43.2 45.61,-43.2"/>
<text text-anchor="start" x="52.61" y="-55.4" font-family="Arial" font-size="14.00">deleted_at </text>
<text text-anchor="start" x="121.89" y="-55.4" font-family="Arial" font-size="14.00" fill="#666666">[timestamp with time zone]</text>
</g>
<!-- public.entries&#45;&gt;public.accounts -->
<g id="edge1" class="edge">
<title>public.entries:account_id&#45;&gt;public.accounts:id</title>
<path fill="none" stroke="black" d="M306.88,-463.15C353.13,-435.31 350.35,-212.6 297.56,-212.6"/>
<polygon fill="black" stroke="black" points="306.9,-463.15 296.05,-461.58 301.78,-464.62 297.61,-465.82 297.61,-465.82 297.61,-465.82 301.78,-464.62 298.54,-470.23 306.9,-463.15"/>
<text text-anchor="start" x="303.97" y="-476" font-family="Arial" font-size="10.00">FOREIGN KEY (account_id) REFERENCES accounts(id) DEFERRABLE</text>
</g>
</g>
</svg>
