<?xml version="1.0" encoding="UTF-8" standalone="no"?>
<!DOCTYPE svg PUBLIC "-//W3C//DTD SVG 1.1//EN"
 "http://www.w3.org/Graphics/SVG/1.1/DTD/svg11.dtd">
<!-- Generated by graphviz version 12.1.2 (20240928.0832)
 -->
<!-- Title: public.accounts Pages: 1 -->
<svg width="1064pt" height="976pt"
 viewBox="0.00 0.00 1063.62 975.60" xmlns="http://www.w3.org/2000/svg" xmlns:xlink="http://www.w3.org/1999/xlink">
<g id="graph0" class="graph" transform="scale(1 1) rotate(0) translate(4 971.6)">
<title>public.accounts</title>
<polygon fill="white" stroke="none" points="-4,4 -4,-971.6 1059.62,-971.6 1059.62,4 -4,4"/>
<!-- public.accounts -->
<g id="node1" class="node">
<title>public.accounts</title>
<polygon fill="#efefef" stroke="none" points="440.62,-573.8 440.62,-609.4 691.58,-609.4 691.58,-573.8 440.62,-573.8"/>
<polygon fill="none" stroke="black" points="440.62,-573.8 440.62,-609.4 691.58,-609.4 691.58,-573.8 440.62,-573.8"/>
<text text-anchor="start" x="447.62" y="-587.2" font-family="Arial Bold" font-size="18.00">public.accounts</text>
<text text-anchor="start" x="560.09" y="-587.2" font-family="Arial" font-size="14.00">    </text>
<text text-anchor="start" x="591.2" y="-587.2" font-family="Arial" font-size="14.00" fill="#666666">[BASE TABLE]</text>
<polygon fill="none" stroke="black" points="440.62,-543 440.62,-573.8 691.58,-573.8 691.58,-543 440.62,-543"/>
<text text-anchor="start" x="447.62" y="-555.2" font-family="Arial" font-size="14.00">id </text>
<text text-anchor="start" x="462.41" y="-555.2" font-family="Arial" font-size="14.00" fill="#666666">[bigint]</text>
<polygon fill="none" stroke="black" points="440.62,-512.2 440.62,-543 691.58,-543 691.58,-512.2 440.62,-512.2"/>
<text text-anchor="start" x="447.62" y="-524.4" font-family="Arial" font-size="14.00">owner </text>
<text text-anchor="start" x="489.64" y="-524.4" font-family="Arial" font-size="14.00" fill="#666666">[varchar]</text>
<polygon fill="none" stroke="black" points="440.62,-481.4 440.62,-512.2 691.58,-512.2 691.58,-481.4 440.62,-481.4"/>
<text text-anchor="start" x="447.62" y="-493.6" font-family="Arial" font-size="14.00">balance </text>
<text text-anchor="start" x="500.55" y="-493.6" font-family="Arial" font-size="14.00" fill="#666666">[numeric]</text>
<polygon fill="none" stroke="black" points="440.62,-450.6 440.62,-481.4 691.58,-481.4 691.58,-450.6 440.62,-450.6"/>
<text text-anchor="start" x="447.62" y="-462.8" font-family="Arial" font-size="14.00">currency </text>
<text text-anchor="start" x="505.19" y="-462.8" font-family="Arial" font-size="14.00" fill="#666666">[varchar]</text>
<polygon fill="none" stroke="black" points="440.62,-419.8 440.62,-450.6 691.58,-450.6 691.58,-419.8 440.62,-419.8"/>
<text text-anchor="start" x="447.62" y="-432" font-family="Arial" font-size="14.00">created_at </text>
<text text-anchor="start" x="517.67" y="-432" font-family="Arial" font-size="14.00" fill="#666666">[timestamp with time zone]</text>
<polygon fill="none" stroke="black" points="440.62,-389 440.62,-419.8 691.58,-419.8 691.58,-389 440.62,-389"/>
<text text-anchor="start" x="447.62" y="-401.2" font-family="Arial" font-size="14.00">deleted_at </text>
<text text-anchor="start" x="516.9" y="-401.2" font-family="Arial" font-size="14.00" fill="#666666">[timestamp with time zone]</text>
<polygon fill="none" stroke="black" stroke-width="3" points="439.12,-387.5 439.12,-610.9 693.08,-610.9 693.08,-387.5 439.12,-387.5"/>
</g>
<!-- public.users -->
<g id="node4" class="node">
<title>public.users</title>
<polygon fill="#efefef" stroke="none" points="403.85,-228 403.85,-263.6 728.35,-263.6 728.35,-228 403.85,-228"/>
<polygon fill="none" stroke="black" points="403.85,-228 403.85,-263.6 728.35,-263.6 728.35,-228 403.85,-228"/>
<text text-anchor="start" x="460.61" y="-241.4" font-family="Arial Bold" font-size="18.00">public.users</text>
<text text-anchor="start" x="547.1" y="-241.4" font-family="Arial" font-size="14.00">    </text>
<text text-anchor="start" x="578.21" y="-241.4" font-family="Arial" font-size="14.00" fill="#666666">[BASE TABLE]</text>
<polygon fill="none" stroke="black" points="403.85,-197.2 403.85,-228 728.35,-228 728.35,-197.2 403.85,-197.2"/>
<text text-anchor="start" x="410.85" y="-209.4" font-family="Arial" font-size="14.00">username </text>
<text text-anchor="start" x="477" y="-209.4" font-family="Arial" font-size="14.00" fill="#666666">[varchar]</text>
<polygon fill="none" stroke="black" points="403.85,-166.4 403.85,-197.2 728.35,-197.2 728.35,-166.4 403.85,-166.4"/>
<text text-anchor="start" x="410.85" y="-178.6" font-family="Arial" font-size="14.00">hashed_password </text>
<text text-anchor="start" x="528.37" y="-178.6" font-family="Arial" font-size="14.00" fill="#666666">[varchar]</text>
<polygon fill="none" stroke="black" points="403.85,-135.6 403.85,-166.4 728.35,-166.4 728.35,-135.6 403.85,-135.6"/>
<text text-anchor="start" x="410.85" y="-147.8" font-family="Arial" font-size="14.00">full_name </text>
<text text-anchor="start" x="475.44" y="-147.8" font-family="Arial" font-size="14.00" fill="#666666">[varchar]</text>
<polygon fill="none" stroke="black" points="403.85,-104.8 403.85,-135.6 728.35,-135.6 728.35,-104.8 403.85,-104.8"/>
<text text-anchor="start" x="410.85" y="-117" font-family="Arial" font-size="14.00">email </text>
<text text-anchor="start" x="448.2" y="-117" font-family="Arial" font-size="14.00" fill="#666666">[varchar]</text>
<polygon fill="none" stroke="black" points="403.85,-74 403.85,-104.8 728.35,-104.8 728.35,-74 403.85,-74"/>
<text text-anchor="start" x="410.85" y="-86.2" font-family="Arial" font-size="14.00">password_changed_at </text>
<text text-anchor="start" x="555.62" y="-86.2" font-family="Arial" font-size="14.00" fill="#666666">[timestamp with time zone]</text>
<polygon fill="none" stroke="black" points="403.85,-43.2 403.85,-74 728.35,-74 728.35,-43.2 403.85,-43.2"/>
<text text-anchor="start" x="410.85" y="-55.4" font-family="Arial" font-size="14.00">created_at </text>
<text text-anchor="start" x="480.9" y="-55.4" font-family="Arial" font-size="14.00" fill="#666666">[timestamp with time zone]</text>
</g>
<!-- public.accounts&#45;&gt;public.users -->
<g id="edge4" class="edge">
<title>public.accounts:owner&#45;&gt;public.users:username</title>
<path fill="none" stroke="black" d="M702.65,-525.42C766.39,-497.59 796.38,-212.6 729.35,-212.6"/>
<polygon fill="black" stroke="black" points="702.68,-525.41 691.95,-523.13 697.46,-526.54 693.23,-527.46 693.23,-527.46 693.23,-527.46 697.46,-526.54 693.85,-531.93 702.68,-525.41"/>
<text text-anchor="start" x="699.58" y="-537.6" font-family="Arial" font-size="10.00">FOREIGN KEY (owner) REFERENCES users(username) DEFERRABLE</text>
</g>
<!-- public.entries -->
<g id="node2" class="node">
<title>public.entries</title>
<polygon fill="#efefef" stroke="none" points="87.21,-873.4 87.21,-909 336.98,-909 336.98,-873.4 87.21,-873.4"/>
<polygon fill="none" stroke="black" points="87.21,-873.4 87.21,-909 336.98,-909 336.98,-873.4 87.21,-873.4"/>
<text text-anchor="start" x="101.12" y="-886.8" font-family="Arial Bold" font-size="18.00">public.entries</text>
<text text-anchor="start" x="198.59" y="-886.8" font-family="Arial" font-size="14.00">    </text>
<text text-anchor="start" x="229.71" y="-886.8" font-family="Arial" font-size="14.00" fill="#666666">[BASE TABLE]</text>
<polygon fill="none" stroke="black" points="87.21,-842.6 87.21,-873.4 336.98,-873.4 336.98,-842.6 87.21,-842.6"/>
<text text-anchor="start" x="94.21" y="-854.8" font-family="Arial" font-size="14.00">id </text>
<text text-anchor="start" x="109" y="-854.8" font-family="Arial" font-size="14.00" fill="#666666">[bigint]</text>
<polygon fill="none" stroke="black" points="87.21,-811.8 87.21,-842.6 336.98,-842.6 336.98,-811.8 87.21,-811.8"/>
<text text-anchor="start" x="94.21" y="-824" font-family="Arial" font-size="14.00">account_id </text>
<text text-anchor="start" x="165.82" y="-824" font-family="Arial" font-size="14.00" fill="#666666">[bigint]</text>
<polygon fill="none" stroke="black" points="87.21,-781 87.21,-811.8 336.98,-811.8 336.98,-781 87.21,-781"/>
<text text-anchor="start" x="94.21" y="-793.2" font-family="Arial" font-size="14.00">amount </text>
<text text-anchor="start" x="144.8" y="-793.2" font-family="Arial" font-size="14.00" fill="#666666">[numeric]</text>
<polygon fill="none" stroke="black" points="87.21,-750.2 87.21,-781 336.98,-781 336.98,-750.2 87.21,-750.2"/>
<text text-anchor="start" x="94.21" y="-762.4" font-family="Arial" font-size="14.00">created_at </text>
<text text-anchor="start" x="164.26" y="-762.4" font-family="Arial" font-size="14.00" fill="#666666">[timestamp with time zone]</text>
</g>
<!-- public.entries&#45;&gt;public.accounts -->
<g id="edge1" class="edge">
<title>public.entries:account_id&#45;&gt;public.accounts:id</title>
<path fill="none" stroke="black" d="M348,-824.71C399.18,-797.61 379.38,-558.4 439.62,-558.4"/>
<polygon fill="black" stroke="black" points="348.01,-824.71 337.22,-822.75 342.84,-825.99 338.63,-827.04 338.63,-827.04 338.63,-827.04 342.84,-825.99 339.39,-831.49 348.01,-824.71"/>
<text text-anchor="start" x="7" y="-837.2" font-family="Arial" font-size="10.00">FOREIGN KEY (account_id) REFERENCES accounts(id) DEFERRABLE</text>
</g>
<!-- public.transfers -->
<g id="node3" class="node">
<title>public.transfers</title>
<polygon fill="#efefef" stroke="none" points="441.12,-888.8 441.12,-924.4 691.07,-924.4 691.07,-888.8 441.12,-888.8"/>
<polygon fill="none" stroke="black" points="441.12,-888.8 441.12,-924.4 691.07,-924.4 691.07,-888.8 441.12,-888.8"/>
<text text-anchor="start" x="448.12" y="-902.2" font-family="Arial Bold" font-size="18.00">public.transfers</text>
<text text-anchor="start" x="559.59" y="-902.2" font-family="Arial" font-size="14.00">    </text>
<text text-anchor="start" x="590.7" y="-902.2" font-family="Arial" font-size="14.00" fill="#666666">[BASE TABLE]</text>
<polygon fill="none" stroke="black" points="441.12,-858 441.12,-888.8 691.07,-888.8 691.07,-858 441.12,-858"/>
<text text-anchor="start" x="448.12" y="-870.2" font-family="Arial" font-size="14.00">id </text>
<text text-anchor="start" x="462.91" y="-870.2" font-family="Arial" font-size="14.00" fill="#666666">[bigint]</text>
<polygon fill="none" stroke="black" points="441.12,-827.2 441.12,-858 691.07,-858 691.07,-827.2 441.12,-827.2"/>
<text text-anchor="start" x="448.12" y="-839.4" font-family="Arial" font-size="14.00">from_account_id </text>
<text text-anchor="start" x="555.52" y="-839.4" font-family="Arial" font-size="14.00" fill="#666666">[bigint]</text>
<polygon fill="none" stroke="black" points="441.12,-796.4 441.12,-827.2 691.07,-827.2 691.07,-796.4 441.12,-796.4"/>
<text text-anchor="start" x="448.12" y="-808.6" font-family="Arial" font-size="14.00">to_account_id </text>
<text text-anchor="start" x="539.19" y="-808.6" font-family="Arial" font-size="14.00" fill="#666666">[bigint]</text>
<polygon fill="none" stroke="black" points="441.12,-765.6 441.12,-796.4 691.07,-796.4 691.07,-765.6 441.12,-765.6"/>
<text text-anchor="start" x="448.12" y="-777.8" font-family="Arial" font-size="14.00">amount </text>
<text text-anchor="start" x="498.71" y="-777.8" font-family="Arial" font-size="14.00" fill="#666666">[numeric]</text>
<polygon fill="none" stroke="black" points="441.12,-734.8 441.12,-765.6 691.07,-765.6 691.07,-734.8 441.12,-734.8"/>
<text text-anchor="start" x="448.12" y="-747" font-family="Arial" font-size="14.00">created_at </text>
<text text-anchor="start" x="518.17" y="-747" font-family="Arial" font-size="14.00" fill="#666666">[timestamp with time zone]</text>
</g>
<!-- public.transfers&#45;&gt;public.accounts -->
<g id="edge2" class="edge">
<title>public.transfers:from_account_id&#45;&gt;public.accounts:id</title>
<path fill="none" stroke="black" d="M702.15,-841.97C818.32,-827.27 815.43,-558.4 692.58,-558.4"/>
<polygon fill="black" stroke="black" points="702.39,-841.96 692.13,-838.09 697.07,-842.29 692.74,-842.56 692.74,-842.56 692.74,-842.56 697.07,-842.29 692.69,-847.07 702.39,-841.96"/>
<text text-anchor="start" x="699.07" y="-852.6" font-family="Arial" font-size="10.00">FOREIGN KEY (from_account_id) REFERENCES accounts(id) DEFERRABLE</text>
</g>
<!-- public.transfers&#45;&gt;public.accounts -->
<g id="edge3" class="edge">
<title>public.transfers:to_account_id&#45;&gt;public.accounts:id</title>
<path fill="none" stroke="black" d="M702.3,-811.07C804.62,-796.21 801.68,-558.4 692.58,-558.4"/>
<polygon fill="black" stroke="black" points="702.38,-811.07 692.09,-807.29 697.06,-811.45 692.74,-811.75 692.74,-811.75 692.74,-811.75 697.06,-811.45 692.73,-816.26 702.38,-811.07"/>
<text text-anchor="start" x="699.07" y="-821.8" font-family="Arial" font-size="10.00">FOREIGN KEY (to_account_id) REFERENCES accounts(id) DEFERRABLE</text>
</g>
</g>
</svg>
