<?xml version="1.0" encoding="UTF-8" standalone="no"?>
<!DOCTYPE svg PUBLIC "-//W3C//DTD SVG 1.1//EN"
 "http://www.w3.org/Graphics/SVG/1.1/DTD/svg11.dtd">
<!-- Generated by graphviz version 12.1.2 (20240928.0832)
 -->
<!-- Title: public.users Pages: 1 -->
<svg width="681pt" height="664pt"
 viewBox="0.00 0.00 680.89 663.60" xmlns="http://www.w3.org/2000/svg" xmlns:xlink="http://www.w3.org/1999/xlink">
<g id="graph0" class="graph" transform="scale(1 1) rotate(0) translate(4 659.6)">
<title>public.users</title>
<polygon fill="white" stroke="none" points="-4,4 -4,-659.6 676.89,-659.6 676.89,4 -4,4"/>
<!-- public.users -->
<g id="node1" class="node">
<title>public.users</title>
<polygon fill="#efefef" stroke="none" points="46.2,-231 46.2,-266.6 370.7,-266.6 370.7,-231 46.2,-231"/>
<polygon fill="none" stroke="black" points="46.2,-231 46.2,-266.6 370.7,-266.6 370.7,-231 46.2,-231"/>
<text text-anchor="start" x="102.96" y="-244.4" font-family="Arial Bold" font-size="18.00">public.users</text>
<text text-anchor="start" x="189.45" y="-244.4" font-family="Arial" font-size="14.00">    </text>
<text text-anchor="start" x="220.56" y="-244.4" font-family="Arial" font-size="14.00" fill="#666666">[BASE TABLE]</text>
<polygon fill="none" stroke="black" points="46.2,-200.2 46.2,-231 370.7,-231 370.7,-200.2 46.2,-200.2"/>
<text text-anchor="start" x="53.2" y="-212.4" font-family="Arial" font-size="14.00">username </text>
<text text-anchor="start" x="119.34" y="-212.4" font-family="Arial" font-size="14.00" fill="#666666">[varchar]</text>
<polygon fill="none" stroke="black" points="46.2,-169.4 46.2,-200.2 370.7,-200.2 370.7,-169.4 46.2,-169.4"/>
<text text-anchor="start" x="53.2" y="-181.6" font-family="Arial" font-size="14.00">hashed_password </text>
<text text-anchor="start" x="170.72" y="-181.6" font-family="Arial" font-size="14.00" fill="#666666">[varchar]</text>
<polygon fill="none" stroke="black" points="46.2,-138.6 46.2,-169.4 370.7,-169.4 370.7,-138.6 46.2,-138.6"/>
<text text-anchor="start" x="53.2" y="-150.8" font-family="Arial" font-size="14.00">full_name </text>
<text text-anchor="start" x="117.79" y="-150.8" font-family="Arial" font-size="14.00" fill="#666666">[varchar]</text>
<polygon fill="none" stroke="black" points="46.2,-107.8 46.2,-138.6 370.7,-138.6 370.7,-107.8 46.2,-107.8"/>
<text text-anchor="start" x="53.2" y="-120" font-family="Arial" font-size="14.00">email </text>
<text text-anchor="start" x="90.54" y="-120" font-family="Arial" font-size="14.00" fill="#666666">[varchar]</text>
<polygon fill="none" stroke="black" points="46.2,-77 46.2,-107.8 370.7,-107.8 370.7,-77 46.2,-77"/>
<text text-anchor="start" x="53.2" y="-89.2" font-family="Arial" font-size="14.00">password_changed_at </text>
<text text-anchor="start" x="197.97" y="-89.2" font-family="Arial" font-size="14.00" fill="#666666">[timestamp with time zone]</text>
<polygon fill="none" stroke="black" points="46.2,-46.2 46.2,-77 370.7,-77 370.7,-46.2 46.2,-46.2"/>
<text text-anchor="start" x="53.2" y="-58.4" font-family="Arial" font-size="14.00">created_at </text>
<text text-anchor="start" x="123.25" y="-58.4" font-family="Arial" font-size="14.00" fill="#666666">[timestamp with time zone]</text>
<polygon fill="none" stroke="black" stroke-width="3" points="44.7,-44.7 44.7,-268.1 372.2,-268.1 372.2,-44.7 44.7,-44.7"/>
</g>
<!-- public.accounts -->
<g id="node2" class="node">
<title>public.accounts</title>
<polygon fill="#efefef" stroke="none" points="82.97,-576.8 82.97,-612.4 333.92,-612.4 333.92,-576.8 82.97,-576.8"/>
<polygon fill="none" stroke="black" points="82.97,-576.8 82.97,-612.4 333.92,-612.4 333.92,-576.8 82.97,-576.8"/>
<text text-anchor="start" x="89.97" y="-590.2" font-family="Arial Bold" font-size="18.00">public.accounts</text>
<text text-anchor="start" x="202.44" y="-590.2" font-family="Arial" font-size="14.00">    </text>
<text text-anchor="start" x="233.55" y="-590.2" font-family="Arial" font-size="14.00" fill="#666666">[BASE TABLE]</text>
<polygon fill="none" stroke="black" points="82.97,-546 82.97,-576.8 333.92,-576.8 333.92,-546 82.97,-546"/>
<text text-anchor="start" x="89.97" y="-558.2" font-family="Arial" font-size="14.00">id </text>
<text text-anchor="start" x="104.76" y="-558.2" font-family="Arial" font-size="14.00" fill="#666666">[bigint]</text>
<polygon fill="none" stroke="black" points="82.97,-515.2 82.97,-546 333.92,-546 333.92,-515.2 82.97,-515.2"/>
<text text-anchor="start" x="89.97" y="-527.4" font-family="Arial" font-size="14.00">owner </text>
<text text-anchor="start" x="131.99" y="-527.4" font-family="Arial" font-size="14.00" fill="#666666">[varchar]</text>
<polygon fill="none" stroke="black" points="82.97,-484.4 82.97,-515.2 333.92,-515.2 333.92,-484.4 82.97,-484.4"/>
<text text-anchor="start" x="89.97" y="-496.6" font-family="Arial" font-size="14.00">balance </text>
<text text-anchor="start" x="142.9" y="-496.6" font-family="Arial" font-size="14.00" fill="#666666">[numeric]</text>
<polygon fill="none" stroke="black" points="82.97,-453.6 82.97,-484.4 333.92,-484.4 333.92,-453.6 82.97,-453.6"/>
<text text-anchor="start" x="89.97" y="-465.8" font-family="Arial" font-size="14.00">currency </text>
<text text-anchor="start" x="147.54" y="-465.8" font-family="Arial" font-size="14.00" fill="#666666">[varchar]</text>
<polygon fill="none" stroke="black" points="82.97,-422.8 82.97,-453.6 333.92,-453.6 333.92,-422.8 82.97,-422.8"/>
<text text-anchor="start" x="89.97" y="-435" font-family="Arial" font-size="14.00">created_at </text>
<text text-anchor="start" x="160.02" y="-435" font-family="Arial" font-size="14.00" fill="#666666">[timestamp with time zone]</text>
<polygon fill="none" stroke="black" points="82.97,-392 82.97,-422.8 333.92,-422.8 333.92,-392 82.97,-392"/>
<text text-anchor="start" x="89.97" y="-404.2" font-family="Arial" font-size="14.00">deleted_at </text>
<text text-anchor="start" x="159.25" y="-404.2" font-family="Arial" font-size="14.00" fill="#666666">[timestamp with time zone]</text>
</g>
<!-- public.accounts&#45;&gt;public.users -->
<g id="edge1" class="edge">
<title>public.accounts:owner&#45;&gt;public.users:username</title>
<path fill="none" stroke="black" d="M345,-528.42C408.74,-500.59 438.73,-215.6 371.7,-215.6"/>
<polygon fill="black" stroke="black" points="345.03,-528.41 334.3,-526.13 339.81,-529.54 335.58,-530.46 335.58,-530.46 335.58,-530.46 339.81,-529.54 336.2,-534.93 345.03,-528.41"/>
<text text-anchor="start" x="341.92" y="-540.6" font-family="Arial" font-size="10.00">FOREIGN KEY (owner) REFERENCES users(username) DEFERRABLE</text>
</g>
</g>
</svg>
