<?xml version="1.0" encoding="UTF-8" standalone="no"?>
<!DOCTYPE svg PUBLIC "-//W3C//DTD SVG 1.1//EN"
 "http://www.w3.org/Graphics/SVG/1.1/DTD/svg11.dtd">
<!-- Generated by graphviz version 12.1.2 (20240928.0832)
 -->
<!-- Title: public.transfers Pages: 1 -->
<svg width="669pt" height="633pt"
 viewBox="0.00 0.00 668.70 632.80" xmlns="http://www.w3.org/2000/svg" xmlns:xlink="http://www.w3.org/1999/xlink">
<g id="graph0" class="graph" transform="scale(1 1) rotate(0) translate(4 628.8)">
<title>public.transfers</title>
<polygon fill="white" stroke="none" points="-4,4 -4,-628.8 664.7,-628.8 664.7,4 -4,4"/>
<!-- public.transfers -->
<g id="node1" class="node">
<title>public.transfers</title>
<polygon fill="#efefef" stroke="none" points="46.2,-543 46.2,-578.6 296.15,-578.6 296.15,-543 46.2,-543"/>
<polygon fill="none" stroke="black" points="46.2,-543 46.2,-578.6 296.15,-578.6 296.15,-543 46.2,-543"/>
<text text-anchor="start" x="53.2" y="-556.4" font-family="Arial Bold" font-size="18.00">public.transfers</text>
<text text-anchor="start" x="164.66" y="-556.4" font-family="Arial" font-size="14.00">    </text>
<text text-anchor="start" x="195.78" y="-556.4" font-family="Arial" font-size="14.00" fill="#666666">[BASE TABLE]</text>
<polygon fill="none" stroke="black" points="46.2,-512.2 46.2,-543 296.15,-543 296.15,-512.2 46.2,-512.2"/>
<text text-anchor="start" x="53.2" y="-524.4" font-family="Arial" font-size="14.00">id </text>
<text text-anchor="start" x="67.99" y="-524.4" font-family="Arial" font-size="14.00" fill="#666666">[bigint]</text>
<polygon fill="none" stroke="black" points="46.2,-481.4 46.2,-512.2 296.15,-512.2 296.15,-481.4 46.2,-481.4"/>
<text text-anchor="start" x="53.2" y="-493.6" font-family="Arial" font-size="14.00">from_account_id </text>
<text text-anchor="start" x="160.59" y="-493.6" font-family="Arial" font-size="14.00" fill="#666666">[bigint]</text>
<polygon fill="none" stroke="black" points="46.2,-450.6 46.2,-481.4 296.15,-481.4 296.15,-450.6 46.2,-450.6"/>
<text text-anchor="start" x="53.2" y="-462.8" font-family="Arial" font-size="14.00">to_account_id </text>
<text text-anchor="start" x="144.27" y="-462.8" font-family="Arial" font-size="14.00" fill="#666666">[bigint]</text>
<polygon fill="none" stroke="black" points="46.2,-419.8 46.2,-450.6 296.15,-450.6 296.15,-419.8 46.2,-419.8"/>
<text text-anchor="start" x="53.2" y="-432" font-family="Arial" font-size="14.00">amount </text>
<text text-anchor="start" x="103.79" y="-432" font-family="Arial" font-size="14.00" fill="#666666">[numeric]</text>
<polygon fill="none" stroke="black" points="46.2,-389 46.2,-419.8 296.15,-419.8 296.15,-389 46.2,-389"/>
<text text-anchor="start" x="53.2" y="-401.2" font-family="Arial" font-size="14.00">created_at </text>
<text text-anchor="start" x="123.25" y="-401.2" font-family="Arial" font-size="14.00" fill="#666666">[timestamp with time zone]</text>
<polygon fill="none" stroke="black" stroke-width="3" points="44.7,-387.5 44.7,-580.1 297.65,-580.1 297.65,-387.5 44.7,-387.5"/>
</g>
<!-- public.accounts -->
<g id="node2" class="node">
<title>public.accounts</title>
<polygon fill="#efefef" stroke="none" points="45.7,-228 45.7,-263.6 296.65,-263.6 296.65,-228 45.7,-228"/>
<polygon fill="none" stroke="black" points="45.7,-228 45.7,-263.6 296.65,-263.6 296.65,-228 45.7,-228"/>
<text text-anchor="start" x="52.7" y="-241.4" font-family="Arial Bold" font-size="18.00">public.accounts</text>
<text text-anchor="start" x="165.16" y="-241.4" font-family="Arial" font-size="14.00">    </text>
<text text-anchor="start" x="196.28" y="-241.4" font-family="Arial" font-size="14.00" fill="#666666">[BASE TABLE]</text>
<polygon fill="none" stroke="black" points="45.7,-197.2 45.7,-228 296.65,-228 296.65,-197.2 45.7,-197.2"/>
<text text-anchor="start" x="52.7" y="-209.4" font-family="Arial" font-size="14.00">id </text>
<text text-anchor="start" x="67.49" y="-209.4" font-family="Arial" font-size="14.00" fill="#666666">[bigint]</text>
<polygon fill="none" stroke="black" points="45.7,-166.4 45.7,-197.2 296.65,-197.2 296.65,-166.4 45.7,-166.4"/>
<text text-anchor="start" x="52.7" y="-178.6" font-family="Arial" font-size="14.00">owner </text>
<text text-anchor="start" x="94.72" y="-178.6" font-family="Arial" font-size="14.00" fill="#666666">[varchar]</text>
<polygon fill="none" stroke="black" points="45.7,-135.6 45.7,-166.4 296.65,-166.4 296.65,-135.6 45.7,-135.6"/>
<text text-anchor="start" x="52.7" y="-147.8" font-family="Arial" font-size="14.00">balance </text>
<text text-anchor="start" x="105.63" y="-147.8" font-family="Arial" font-size="14.00" fill="#666666">[numeric]</text>
<polygon fill="none" stroke="black" points="45.7,-104.8 45.7,-135.6 296.65,-135.6 296.65,-104.8 45.7,-104.8"/>
<text text-anchor="start" x="52.7" y="-117" font-family="Arial" font-size="14.00">currency </text>
<text text-anchor="start" x="110.27" y="-117" font-family="Arial" font-size="14.00" fill="#666666">[varchar]</text>
<polygon fill="none" stroke="black" points="45.7,-74 45.7,-104.8 296.65,-104.8 296.65,-74 45.7,-74"/>
<text text-anchor="start" x="52.7" y="-86.2" font-family="Arial" font-size="14.00">created_at </text>
<text text-anchor="start" x="122.75" y="-86.2" font-family="Arial" font-size="14.00" fill="#666666">[timestamp with time zone]</text>
<polygon fill="none" stroke="black" points="45.7,-43.2 45.7,-74 296.65,-74 296.65,-43.2 45.7,-43.2"/>
<text text-anchor="start" x="52.7" y="-55.4" font-family="Arial" font-size="14.00">deleted_at </text>
<text text-anchor="start" x="121.98" y="-55.4" font-family="Arial" font-size="14.00" fill="#666666">[timestamp with time zone]</text>
</g>
<!-- public.transfers&#45;&gt;public.accounts -->
<g id="edge1" class="edge">
<title>public.transfers:from_account_id&#45;&gt;public.accounts:id</title>
<path fill="none" stroke="black" d="M306.95,-494.34C360.17,-466.57 357.35,-212.6 297.65,-212.6"/>
<polygon fill="black" stroke="black" points="307.18,-494.29 296.38,-492.35 302,-495.58 297.8,-496.64 297.8,-496.64 297.8,-496.64 302,-495.58 298.57,-501.08 307.18,-494.29"/>
<text text-anchor="start" x="304.15" y="-506.8" font-family="Arial" font-size="10.00">FOREIGN KEY (from_account_id) REFERENCES accounts(id) DEFERRABLE</text>
</g>
<!-- public.transfers&#45;&gt;public.accounts -->
<g id="edge2" class="edge">
<title>public.transfers:to_account_id&#45;&gt;public.accounts:id</title>
<path fill="none" stroke="black" d="M307.06,-463.15C353.3,-435.31 350.44,-212.6 297.65,-212.6"/>
<polygon fill="black" stroke="black" points="307.08,-463.15 296.23,-461.58 301.96,-464.62 297.8,-465.82 297.8,-465.82 297.8,-465.82 301.96,-464.62 298.72,-470.23 307.08,-463.15"/>
<text text-anchor="start" x="304.15" y="-476" font-family="Arial" font-size="10.00">FOREIGN KEY (to_account_id) REFERENCES accounts(id) DEFERRABLE</text>
</g>
</g>
</svg>
