<?xml version="1.0" encoding="UTF-8" standalone="no"?>
<!DOCTYPE svg PUBLIC "-//W3C//DTD SVG 1.1//EN"
 "http://www.w3.org/Graphics/SVG/1.1/DTD/svg11.dtd">
<!-- Generated by graphviz version 12.1.2 (20240928.0832)
 -->
<!-- Title: gobank Pages: 1 -->
<svg width="1452pt" height="970pt"
 viewBox="0.00 0.00 1451.70 969.60" xmlns="http://www.w3.org/2000/svg" xmlns:xlink="http://www.w3.org/1999/xlink">
<g id="graph0" class="graph" transform="scale(1 1) rotate(0) translate(4 965.6)">
<title>gobank</title>
<polygon fill="white" stroke="none" points="-4,4 -4,-965.6 1447.7,-965.6 1447.7,4 -4,4"/>
<!-- public.schema_migrations -->
<g id="node1" class="node">
<title>public.schema_migrations</title>
<polygon fill="#efefef" stroke="none" points="43.2,-836.6 43.2,-872.2 371.15,-872.2 371.15,-836.6 43.2,-836.6"/>
<polygon fill="none" stroke="black" points="43.2,-836.6 43.2,-872.2 371.15,-872.2 371.15,-836.6 43.2,-836.6"/>
<text text-anchor="start" x="50.2" y="-850" font-family="Arial Bold" font-size="18.00">public.schema_migrations</text>
<text text-anchor="start" x="239.66" y="-850" font-family="Arial" font-size="14.00">    </text>
<text text-anchor="start" x="270.77" y="-850" font-family="Arial" font-size="14.00" fill="#666666">[BASE TABLE]</text>
<polygon fill="none" stroke="black" points="43.2,-805.8 43.2,-836.6 371.15,-836.6 371.15,-805.8 43.2,-805.8"/>
<text text-anchor="start" x="50.2" y="-818" font-family="Arial" font-size="14.00">version </text>
<text text-anchor="start" x="99.22" y="-818" font-family="Arial" font-size="14.00" fill="#666666">[bigint]</text>
<polygon fill="none" stroke="black" points="43.2,-775 43.2,-805.8 371.15,-805.8 371.15,-775 43.2,-775"/>
<text text-anchor="start" x="50.2" y="-787.2" font-family="Arial" font-size="14.00">dirty </text>
<text text-anchor="start" x="80.54" y="-787.2" font-family="Arial" font-size="14.00" fill="#666666">[boolean]</text>
</g>
<!-- public.accounts -->
<g id="node2" class="node">
<title>public.accounts</title>
<polygon fill="#efefef" stroke="none" points="828.7,-570.8 828.7,-606.4 1079.65,-606.4 1079.65,-570.8 828.7,-570.8"/>
<polygon fill="none" stroke="black" points="828.7,-570.8 828.7,-606.4 1079.65,-606.4 1079.65,-570.8 828.7,-570.8"/>
<text text-anchor="start" x="835.7" y="-584.2" font-family="Arial Bold" font-size="18.00">public.accounts</text>
<text text-anchor="start" x="948.16" y="-584.2" font-family="Arial" font-size="14.00">    </text>
<text text-anchor="start" x="979.28" y="-584.2" font-family="Arial" font-size="14.00" fill="#666666">[BASE TABLE]</text>
<polygon fill="none" stroke="black" points="828.7,-540 828.7,-570.8 1079.65,-570.8 1079.65,-540 828.7,-540"/>
<text text-anchor="start" x="835.7" y="-552.2" font-family="Arial" font-size="14.00">id </text>
<text text-anchor="start" x="850.48" y="-552.2" font-family="Arial" font-size="14.00" fill="#666666">[bigint]</text>
<polygon fill="none" stroke="black" points="828.7,-509.2 828.7,-540 1079.65,-540 1079.65,-509.2 828.7,-509.2"/>
<text text-anchor="start" x="835.7" y="-521.4" font-family="Arial" font-size="14.00">owner </text>
<text text-anchor="start" x="877.72" y="-521.4" font-family="Arial" font-size="14.00" fill="#666666">[varchar]</text>
<polygon fill="none" stroke="black" points="828.7,-478.4 828.7,-509.2 1079.65,-509.2 1079.65,-478.4 828.7,-478.4"/>
<text text-anchor="start" x="835.7" y="-490.6" font-family="Arial" font-size="14.00">balance </text>
<text text-anchor="start" x="888.63" y="-490.6" font-family="Arial" font-size="14.00" fill="#666666">[numeric]</text>
<polygon fill="none" stroke="black" points="828.7,-447.6 828.7,-478.4 1079.65,-478.4 1079.65,-447.6 828.7,-447.6"/>
<text text-anchor="start" x="835.7" y="-459.8" font-family="Arial" font-size="14.00">currency </text>
<text text-anchor="start" x="893.27" y="-459.8" font-family="Arial" font-size="14.00" fill="#666666">[varchar]</text>
<polygon fill="none" stroke="black" points="828.7,-416.8 828.7,-447.6 1079.65,-447.6 1079.65,-416.8 828.7,-416.8"/>
<text text-anchor="start" x="835.7" y="-429" font-family="Arial" font-size="14.00">created_at </text>
<text text-anchor="start" x="905.74" y="-429" font-family="Arial" font-size="14.00" fill="#666666">[timestamp with time zone]</text>
<polygon fill="none" stroke="black" points="828.7,-386 828.7,-416.8 1079.65,-416.8 1079.65,-386 828.7,-386"/>
<text text-anchor="start" x="835.7" y="-398.2" font-family="Arial" font-size="14.00">deleted_at </text>
<text text-anchor="start" x="904.98" y="-398.2" font-family="Arial" font-size="14.00" fill="#666666">[timestamp with time zone]</text>
</g>
<!-- public.users -->
<g id="node5" class="node">
<title>public.users</title>
<polygon fill="#efefef" stroke="none" points="791.93,-228 791.93,-263.6 1116.42,-263.6 1116.42,-228 791.93,-228"/>
<polygon fill="none" stroke="black" points="791.93,-228 791.93,-263.6 1116.42,-263.6 1116.42,-228 791.93,-228"/>
<text text-anchor="start" x="848.69" y="-241.4" font-family="Arial Bold" font-size="18.00">public.users</text>
<text text-anchor="start" x="935.17" y="-241.4" font-family="Arial" font-size="14.00">    </text>
<text text-anchor="start" x="966.29" y="-241.4" font-family="Arial" font-size="14.00" fill="#666666">[BASE TABLE]</text>
<polygon fill="none" stroke="black" points="791.93,-197.2 791.93,-228 1116.42,-228 1116.42,-197.2 791.93,-197.2"/>
<text text-anchor="start" x="798.93" y="-209.4" font-family="Arial" font-size="14.00">username </text>
<text text-anchor="start" x="865.07" y="-209.4" font-family="Arial" font-size="14.00" fill="#666666">[varchar]</text>
<polygon fill="none" stroke="black" points="791.93,-166.4 791.93,-197.2 1116.42,-197.2 1116.42,-166.4 791.93,-166.4"/>
<text text-anchor="start" x="798.93" y="-178.6" font-family="Arial" font-size="14.00">hashed_password </text>
<text text-anchor="start" x="916.45" y="-178.6" font-family="Arial" font-size="14.00" fill="#666666">[varchar]</text>
<polygon fill="none" stroke="black" points="791.93,-135.6 791.93,-166.4 1116.42,-166.4 1116.42,-135.6 791.93,-135.6"/>
<text text-anchor="start" x="798.93" y="-147.8" font-family="Arial" font-size="14.00">full_name </text>
<text text-anchor="start" x="863.52" y="-147.8" font-family="Arial" font-size="14.00" fill="#666666">[varchar]</text>
<polygon fill="none" stroke="black" points="791.93,-104.8 791.93,-135.6 1116.42,-135.6 1116.42,-104.8 791.93,-104.8"/>
<text text-anchor="start" x="798.93" y="-117" font-family="Arial" font-size="14.00">email </text>
<text text-anchor="start" x="836.27" y="-117" font-family="Arial" font-size="14.00" fill="#666666">[varchar]</text>
<polygon fill="none" stroke="black" points="791.93,-74 791.93,-104.8 1116.42,-104.8 1116.42,-74 791.93,-74"/>
<text text-anchor="start" x="798.93" y="-86.2" font-family="Arial" font-size="14.00">password_changed_at </text>
<text text-anchor="start" x="943.7" y="-86.2" font-family="Arial" font-size="14.00" fill="#666666">[timestamp with time zone]</text>
<polygon fill="none" stroke="black" points="791.93,-43.2 791.93,-74 1116.42,-74 1116.42,-43.2 791.93,-43.2"/>
<text text-anchor="start" x="798.93" y="-55.4" font-family="Arial" font-size="14.00">created_at </text>
<text text-anchor="start" x="868.97" y="-55.4" font-family="Arial" font-size="14.00" fill="#666666">[timestamp with time zone]</text>
</g>
<!-- public.accounts&#45;&gt;public.users -->
<g id="edge1" class="edge">
<title>public.accounts:owner&#45;&gt;public.users:username</title>
<path fill="none" stroke="black" d="M1090.63,-522.44C1153.8,-494.88 1183.83,-212.6 1117.42,-212.6"/>
<polygon fill="black" stroke="black" points="1090.75,-522.42 1080.03,-520.13 1085.54,-523.54 1081.3,-524.46 1081.3,-524.46 1081.3,-524.46 1085.54,-523.54 1081.93,-528.93 1090.75,-522.42"/>
<text text-anchor="start" x="1087.65" y="-534.6" font-family="Arial" font-size="10.00">FOREIGN KEY (owner) REFERENCES users(username) DEFERRABLE</text>
</g>
<!-- public.entries -->
<g id="node3" class="node">
<title>public.entries</title>
<polygon fill="#efefef" stroke="none" points="475.29,-867.4 475.29,-903 725.06,-903 725.06,-867.4 475.29,-867.4"/>
<polygon fill="none" stroke="black" points="475.29,-867.4 475.29,-903 725.06,-903 725.06,-867.4 475.29,-867.4"/>
<text text-anchor="start" x="489.19" y="-880.8" font-family="Arial Bold" font-size="18.00">public.entries</text>
<text text-anchor="start" x="586.66" y="-880.8" font-family="Arial" font-size="14.00">    </text>
<text text-anchor="start" x="617.78" y="-880.8" font-family="Arial" font-size="14.00" fill="#666666">[BASE TABLE]</text>
<polygon fill="none" stroke="black" points="475.29,-836.6 475.29,-867.4 725.06,-867.4 725.06,-836.6 475.29,-836.6"/>
<text text-anchor="start" x="482.29" y="-848.8" font-family="Arial" font-size="14.00">id </text>
<text text-anchor="start" x="497.07" y="-848.8" font-family="Arial" font-size="14.00" fill="#666666">[bigint]</text>
<polygon fill="none" stroke="black" points="475.29,-805.8 475.29,-836.6 725.06,-836.6 725.06,-805.8 475.29,-805.8"/>
<text text-anchor="start" x="482.29" y="-818" font-family="Arial" font-size="14.00">account_id </text>
<text text-anchor="start" x="553.89" y="-818" font-family="Arial" font-size="14.00" fill="#666666">[bigint]</text>
<polygon fill="none" stroke="black" points="475.29,-775 475.29,-805.8 725.06,-805.8 725.06,-775 475.29,-775"/>
<text text-anchor="start" x="482.29" y="-787.2" font-family="Arial" font-size="14.00">amount </text>
<text text-anchor="start" x="532.87" y="-787.2" font-family="Arial" font-size="14.00" fill="#666666">[numeric]</text>
<polygon fill="none" stroke="black" points="475.29,-744.2 475.29,-775 725.06,-775 725.06,-744.2 475.29,-744.2"/>
<text text-anchor="start" x="482.29" y="-756.4" font-family="Arial" font-size="14.00">created_at </text>
<text text-anchor="start" x="552.34" y="-756.4" font-family="Arial" font-size="14.00" fill="#666666">[timestamp with time zone]</text>
</g>
<!-- public.entries&#45;&gt;public.accounts -->
<g id="edge2" class="edge">
<title>public.entries:account_id&#45;&gt;public.accounts:id</title>
<path fill="none" stroke="black" d="M736.38,-820.44C786.41,-812.41 755.51,-742.23 777.17,-685.6 799.35,-627.63 765.63,-555.4 827.7,-555.4"/>
<polygon fill="black" stroke="black" points="736.37,-820.44 726.06,-816.69 731.05,-820.83 726.73,-821.15 726.73,-821.15 726.73,-821.15 731.05,-820.83 726.72,-825.66 736.37,-820.44"/>
<text text-anchor="start" x="733.06" y="-831.2" font-family="Arial" font-size="10.00">FOREIGN KEY (account_id) REFERENCES accounts(id) DEFERRABLE</text>
</g>
<!-- public.transfers -->
<g id="node4" class="node">
<title>public.transfers</title>
<polygon fill="#efefef" stroke="none" points="829.2,-882.8 829.2,-918.4 1079.15,-918.4 1079.15,-882.8 829.2,-882.8"/>
<polygon fill="none" stroke="black" points="829.2,-882.8 829.2,-918.4 1079.15,-918.4 1079.15,-882.8 829.2,-882.8"/>
<text text-anchor="start" x="836.2" y="-896.2" font-family="Arial Bold" font-size="18.00">public.transfers</text>
<text text-anchor="start" x="947.66" y="-896.2" font-family="Arial" font-size="14.00">    </text>
<text text-anchor="start" x="978.78" y="-896.2" font-family="Arial" font-size="14.00" fill="#666666">[BASE TABLE]</text>
<polygon fill="none" stroke="black" points="829.2,-852 829.2,-882.8 1079.15,-882.8 1079.15,-852 829.2,-852"/>
<text text-anchor="start" x="836.2" y="-864.2" font-family="Arial" font-size="14.00">id </text>
<text text-anchor="start" x="850.98" y="-864.2" font-family="Arial" font-size="14.00" fill="#666666">[bigint]</text>
<polygon fill="none" stroke="black" points="829.2,-821.2 829.2,-852 1079.15,-852 1079.15,-821.2 829.2,-821.2"/>
<text text-anchor="start" x="836.2" y="-833.4" font-family="Arial" font-size="14.00">from_account_id </text>
<text text-anchor="start" x="943.59" y="-833.4" font-family="Arial" font-size="14.00" fill="#666666">[bigint]</text>
<polygon fill="none" stroke="black" points="829.2,-790.4 829.2,-821.2 1079.15,-821.2 1079.15,-790.4 829.2,-790.4"/>
<text text-anchor="start" x="836.2" y="-802.6" font-family="Arial" font-size="14.00">to_account_id </text>
<text text-anchor="start" x="927.27" y="-802.6" font-family="Arial" font-size="14.00" fill="#666666">[bigint]</text>
<polygon fill="none" stroke="black" points="829.2,-759.6 829.2,-790.4 1079.15,-790.4 1079.15,-759.6 829.2,-759.6"/>
<text text-anchor="start" x="836.2" y="-771.8" font-family="Arial" font-size="14.00">amount </text>
<text text-anchor="start" x="886.78" y="-771.8" font-family="Arial" font-size="14.00" fill="#666666">[numeric]</text>
<polygon fill="none" stroke="black" points="829.2,-728.8 829.2,-759.6 1079.15,-759.6 1079.15,-728.8 829.2,-728.8"/>
<text text-anchor="start" x="836.2" y="-741" font-family="Arial" font-size="14.00">created_at </text>
<text text-anchor="start" x="906.24" y="-741" font-family="Arial" font-size="14.00" fill="#666666">[timestamp with time zone]</text>
</g>
<!-- public.transfers&#45;&gt;public.accounts -->
<g id="edge3" class="edge">
<title>public.transfers:from_account_id&#45;&gt;public.accounts:id</title>
<path fill="none" stroke="black" d="M1090.47,-835.94C1205.05,-820.9 1202.09,-555.4 1080.65,-555.4"/>
<polygon fill="black" stroke="black" points="1090.46,-835.94 1080.19,-832.09 1085.14,-836.28 1080.82,-836.56 1080.82,-836.56 1080.82,-836.56 1085.14,-836.28 1080.77,-841.07 1090.46,-835.94"/>
<text text-anchor="start" x="1087.15" y="-846.6" font-family="Arial" font-size="10.00">FOREIGN KEY (from_account_id) REFERENCES accounts(id) DEFERRABLE</text>
</g>
<!-- public.transfers&#45;&gt;public.accounts -->
<g id="edge4" class="edge">
<title>public.transfers:to_account_id&#45;&gt;public.accounts:id</title>
<path fill="none" stroke="black" d="M1090.26,-805.08C1191.36,-790.39 1188.46,-555.4 1080.65,-555.4"/>
<polygon fill="black" stroke="black" points="1090.46,-805.07 1080.16,-801.29 1085.14,-805.45 1080.82,-805.75 1080.82,-805.75 1080.82,-805.75 1085.14,-805.45 1080.8,-810.26 1090.46,-805.07"/>
<text text-anchor="start" x="1087.15" y="-815.8" font-family="Arial" font-size="10.00">FOREIGN KEY (to_account_id) REFERENCES accounts(id) DEFERRABLE</text>
</g>
</g>
</svg>
